<svg xmlns="http://www.w3.org/2000/svg" width="225" height="46" viewBox="0 0 225 46" fill="none"><path d="M41.1499 38.5058V7.22583H47.2312L60.5162 26.9292V7.22583H67.1347V38.4962H61.0054L47.7204 18.7929V38.4962H41.1499V38.5058Z" fill="#C3881B"></path><path d="M73.7433 20.8342C74.7121 19.0612 76.0646 17.6908 77.8103 16.7229C79.5561 15.755 81.5704 15.2663 83.8725 15.2663C86.1746 15.2663 88.2464 15.7167 90.021 16.6271C91.7955 17.5375 93.1767 18.8121 94.1839 20.47C95.1815 22.1279 95.6994 24.0638 95.7282 26.2967C95.7282 27.1017 95.6707 27.8204 95.546 28.4433H78.8655V28.6254C79.0093 30.2929 79.5465 31.6058 80.4769 32.5546C81.3977 33.5129 82.6639 33.9825 84.2754 33.9825C85.5607 33.9825 86.6254 33.7046 87.4695 33.1583C88.3232 32.6025 88.8795 31.7975 89.1481 30.7242H95.3637C95.1239 32.2383 94.5484 33.6087 93.618 34.8354C92.6971 36.0525 91.4694 37.0204 89.9538 37.72C88.4383 38.4196 86.6925 38.7646 84.7262 38.7646C82.1651 38.7646 79.9494 38.2854 78.0885 37.3367C76.2277 36.3879 74.7984 35.0175 73.7913 33.2446C72.7937 31.4717 72.2949 29.4112 72.2949 27.0538C72.2949 24.6962 72.7841 22.5975 73.7529 20.8246L73.7433 20.8342ZM89.4167 24.3417C89.2057 22.9425 88.6301 21.8596 87.6997 21.1025C86.7597 20.3454 85.5799 19.9621 84.1411 19.9621C82.7023 19.9621 81.6184 20.355 80.6783 21.1504C79.7383 21.9362 79.182 23 78.9997 24.3417H89.4167Z" fill="#C3881B"></path><path d="M105.637 26.795L97.503 15.5346H104.707L109.493 22.3292L114.366 15.5346H121.119L113.023 26.795L121.56 38.5058H114.356L109.081 31.3087L103.853 38.5058H97.1001L105.637 26.795Z" fill="#C3881B"></path><path d="M125.157 38.5058V7.22583H131.862V32.7367H144.293V38.4962H125.157V38.5058Z" fill="white"></path><path d="M148.609 20.8342C149.578 19.0612 150.93 17.6908 152.676 16.7229C154.422 15.755 156.436 15.2663 158.738 15.2663C161.04 15.2663 163.112 15.7167 164.887 16.6271C166.661 17.5375 168.042 18.8121 169.05 20.47C170.047 22.1279 170.565 24.0638 170.594 26.2967C170.594 27.1017 170.536 27.8204 170.412 28.4433H153.731V28.6254C153.885 30.2929 154.422 31.6058 155.343 32.5546C156.263 33.5129 157.53 33.9825 159.141 33.9825C160.426 33.9825 161.491 33.7046 162.335 33.1583C163.189 32.6025 163.745 31.7975 164.014 30.7242H170.229C169.99 32.2383 169.414 33.6087 168.484 34.8354C167.563 36.0525 166.335 37.0204 164.82 37.72C163.294 38.4196 161.558 38.7646 159.592 38.7646C157.031 38.7646 154.815 38.2854 152.954 37.3367C151.093 36.3879 149.664 35.0175 148.657 33.2446C147.659 31.4717 147.161 29.4112 147.161 27.0538C147.161 24.6962 147.65 22.5975 148.619 20.8246L148.609 20.8342ZM164.282 24.3417C164.071 22.9425 163.496 21.8596 162.556 21.1025C161.616 20.3454 160.436 19.9621 158.997 19.9621C157.558 19.9621 156.474 20.355 155.534 21.1504C154.594 21.9362 154.038 23 153.856 24.3417H164.273H164.282Z" fill="white"></path><path d="M175.592 20.8342C176.56 19.0612 177.913 17.6908 179.659 16.7229C181.404 15.755 183.419 15.2663 185.721 15.2663C188.023 15.2663 190.095 15.7167 191.869 16.6271C193.644 17.5375 195.025 18.8121 196.032 20.47C197.03 22.1279 197.548 24.0638 197.577 26.2967C197.577 27.1017 197.519 27.8204 197.394 28.4433H180.714V28.6254C180.858 30.2929 181.395 31.6058 182.325 32.5546C183.246 33.5129 184.512 33.9825 186.124 33.9825C187.409 33.9825 188.474 33.7046 189.318 33.1583C190.162 32.6121 190.728 31.7975 190.996 30.7242H197.212C196.972 32.2383 196.397 33.6087 195.466 34.8354C194.545 36.0525 193.318 37.0204 191.802 37.72C190.287 38.4196 188.541 38.7646 186.574 38.7646C184.013 38.7646 181.798 38.2854 179.937 37.3367C178.076 36.3879 176.647 35.0175 175.649 33.2446C174.652 31.4717 174.153 29.4112 174.153 27.0538C174.153 24.6962 174.642 22.5975 175.611 20.8246L175.592 20.8342ZM191.265 24.3417C191.054 22.9425 190.478 21.8596 189.548 21.1025C188.618 20.3454 187.428 19.9621 185.989 19.9621C184.551 19.9621 183.467 20.355 182.527 21.1504C181.587 21.9362 181.03 23 180.848 24.3417H191.265Z" fill="white"></path><path d="M225 7.22583V38.4962H219.504L218.88 35.3242C217.125 37.6146 214.737 38.7646 211.725 38.7646C209.701 38.7646 207.878 38.2758 206.267 37.3079C204.655 36.34 203.399 34.96 202.488 33.1775C201.576 31.395 201.125 29.325 201.125 26.9675C201.125 24.61 201.576 22.5975 202.488 20.8246C203.399 19.0517 204.665 17.6813 206.286 16.7133C207.907 15.7454 209.739 15.2567 211.763 15.2567C214.746 15.2567 217.058 16.3013 218.698 18.3808V7.22583H225ZM217.259 31.8167C218.276 30.6092 218.784 29.0279 218.784 27.0537C218.784 25.0796 218.276 23.4504 217.259 22.2238C216.243 21.0067 214.89 20.3933 213.192 20.3933C211.494 20.3933 210.132 21.0067 209.106 22.2238C208.08 23.4408 207.562 25.0413 207.562 27.0058C207.562 28.9704 208.08 30.5612 209.106 31.7879C210.132 33.005 211.494 33.6183 213.192 33.6183C214.89 33.6183 216.252 33.0146 217.259 31.8071V31.8167Z" fill="white"></path><path d="M25.8601 0V12.5254L0 28.2133V21.62L20.2104 9.34375V5.64458H10.0333V0H25.8601Z" fill="#C3881B"></path><path d="M5.6497 36.6563V40.3554H15.8172V46H0V33.4746L25.8601 17.7771V24.38L5.6497 36.6563Z" fill="white"></path></svg>